<svg xmlns="http://www.w3.org/2000/svg" width="128.982" height="110.874" viewBox="0 0 128.982 110.874"><g transform="translate(-66.686 -64.81)"><g transform="translate(93.692 64.81)"><path d="M172.873,134.844H98.07l52.3-10.021,22.506,10.02h0Zm.008-.417h0l-22.056-9.819L132.368,84.3V64.81l40.514,69.617Zm-77.408-6.879h0l36.51-62.738V84.541l-36.51,43.007Z" transform="translate(-95.473 -64.81)" fill="#404140"/></g><g transform="translate(66.686 149.551)" style="isolation:isolate"><g style="isolation:isolate"><path d="M69.941,181.19a2.012,2.012,0,0,1-1.468-.7,5.164,5.164,0,0,1-1.1-2,15.021,15.021,0,0,1-.6-3.209,25.515,25.515,0,0,1,.014-4.348,26.535,26.535,0,0,1,.439-3.306q.328-1.686.74-3.264t.878-2.977q.466-1.4.864-2.483t.659-1.742q.26-.657.315-.767A1.014,1.014,0,0,1,71,156.1a2.618,2.618,0,0,1,.549-.26,4.833,4.833,0,0,1,.686-.179,3.907,3.907,0,0,1,.7-.068,4.865,4.865,0,0,1,.522.027,3.824,3.824,0,0,1,.438.083,1.222,1.222,0,0,1,.385.164,2.262,2.262,0,0,0-.59.59,8.577,8.577,0,0,0-.535.837,8.28,8.28,0,0,0-.549,1.069q-.549,1.153-1.152,2.8t-1.139,3.5q-.535,1.852-.933,3.759a29.186,29.186,0,0,0-.535,3.58,16.146,16.146,0,0,0,.247,5.034q.466,1.659,1.317,1.66a1.267,1.267,0,0,0,.877-.522,8.261,8.261,0,0,0,.947-1.344q.48-.823.947-1.838t.878-2q.246-.63.535-1.413t.576-1.6q.288-.823.563-1.633t.493-1.467q0-.823.027-1.741t.124-1.866q.1-.947.261-1.865a10.433,10.433,0,0,1,.439-1.688,5.7,5.7,0,0,1,1.289-2.181,2.234,2.234,0,0,1,1.289-.727.568.568,0,0,1,.549.329,1.77,1.77,0,0,1,.137.878,15.808,15.808,0,0,1-.247,1.714q-.191,1-.452,2.14t-.59,2.305q-.329,1.167-.631,2.236a41.708,41.708,0,0,0-.6,5.117,28.637,28.637,0,0,0,.041,3.923,8.964,8.964,0,0,0,.522,2.524q.37.891.891.891a1.8,1.8,0,0,0,1.276-.823,11.232,11.232,0,0,0,1.33-2.181,31,31,0,0,0,1.276-3.086q.616-1.728,1.125-3.553t.837-3.593a30.374,30.374,0,0,0,.438-3.2q.083-1.179.083-2.332,0-.986-.083-2.112a12.48,12.48,0,0,0-.3-2.03,2.787,2.787,0,0,1,.96-.494,5.786,5.786,0,0,1,.659-.191,3.615,3.615,0,0,1,.466-.083c.146-.018.293-.032.439-.041a1.21,1.21,0,0,1,.412.041,3.576,3.576,0,0,1,.233.988q.069.6.1,1.179a12.653,12.653,0,0,1-.028,1.427,51.379,51.379,0,0,1-2.057,11.015,39.138,39.138,0,0,1-1.714,4.609,27.117,27.117,0,0,1-1.949,3.634,11.016,11.016,0,0,1-2,2.387,3.02,3.02,0,0,1-1.907.851,1.8,1.8,0,0,1-1.536-.81,5.907,5.907,0,0,1-.878-2.03,14.362,14.362,0,0,1-.384-2.62q-.083-1.4-.055-2.578-.63,1.535-1.357,2.963a20.989,20.989,0,0,1-1.509,2.538,9.137,9.137,0,0,1-1.591,1.782A2.523,2.523,0,0,1,69.941,181.19Z" transform="translate(-66.686 -155.139)" fill="#404140"/><path d="M98.531,172.226a9.552,9.552,0,0,1-.74,1.948,6.423,6.423,0,0,1-1.112,1.564,4.829,4.829,0,0,1-1.453,1.028,4.194,4.194,0,0,1-1.77.371,2.905,2.905,0,0,1-1.769-.48,2.951,2.951,0,0,1-.96-1.192,4.8,4.8,0,0,1-.385-1.564q-.068-.85-.068-1.591a6.017,6.017,0,0,1,.124-1.152,10.409,10.409,0,0,1,.342-1.29,9.021,9.021,0,0,1,.563-1.317,6.44,6.44,0,0,1,.81-1.206,2.254,2.254,0,0,1,.508-.823,2.981,2.981,0,0,1,.8-.59,4.332,4.332,0,0,1,.974-.357,4.431,4.431,0,0,1,1.015-.123.406.406,0,0,1,.15.027c.046.019.1.038.151.055a2.76,2.76,0,0,1,.892.274,3.8,3.8,0,0,1,1.042.741,4.125,4.125,0,0,1,1.221,3.072q0,.22-.027.535c-.019.21-.037.389-.055.535a13.321,13.321,0,0,0,1.317-.6q.685-.356,1.33-.754t1.193-.81a8.278,8.278,0,0,0,.878-.74.988.988,0,0,1,.466-.275.251.251,0,0,1,.275.11.527.527,0,0,1,.027.385,1.376,1.376,0,0,1-.3.548,8.215,8.215,0,0,1-.7.659q-.563.494-1.331,1.07T100.26,171.4A8.649,8.649,0,0,1,98.531,172.226Zm-6.392.659a8.563,8.563,0,0,0,.054.974,2.906,2.906,0,0,0,.22.851,1.674,1.674,0,0,0,.439.6,1.061,1.061,0,0,0,.713.233,1.8,1.8,0,0,0,.905-.233,2.924,2.924,0,0,0,.741-.6,4.584,4.584,0,0,0,.59-.851,7.583,7.583,0,0,0,.452-1c-.128.018-.251.032-.371.041s-.251.013-.4.013a2.75,2.75,0,0,1-1.8-.617,4.08,4.08,0,0,1-1.166-1.577q-.165.576-.274,1.125A5.319,5.319,0,0,0,92.14,172.885Zm1.755-4.829a1.654,1.654,0,0,0-.082.522,8.1,8.1,0,0,0,.054.919,2.223,2.223,0,0,0,.274.863,1.708,1.708,0,0,0,.7.645,2.805,2.805,0,0,0,1.33.261,2.691,2.691,0,0,0,.275-.013,2.764,2.764,0,0,0,.274-.041c.055-.237.105-.452.151-.645a2.213,2.213,0,0,0,.068-.508,5.232,5.232,0,0,0,0-1.07,4.642,4.642,0,0,0-.205-1,2.353,2.353,0,0,0-.384-.74.7.7,0,0,0-.563-.289,1.908,1.908,0,0,0-1,.289A3.325,3.325,0,0,0,93.9,168.056Z" transform="translate(-68.146 -155.777)" fill="#404140"/><path d="M110.316,177.289a2.35,2.35,0,0,1-1.084-.234,2,2,0,0,1-.727-.617,2.082,2.082,0,0,1-.356-.891,2.751,2.751,0,0,1,.055-1.084q.082-.384.274-1.029t.4-1.4q.205-.754.384-1.509a9.745,9.745,0,0,0,.234-1.372,2.915,2.915,0,0,0-.055-1.014.463.463,0,0,0-.466-.4,1.715,1.715,0,0,0-.905.289,5.006,5.006,0,0,0-.947.781,11.43,11.43,0,0,0-.96,1.139q-.48.643-.947,1.329c-.164.623-.3,1.166-.411,1.633s-.206.887-.289,1.262-.159.7-.233.988-.137.553-.192.809a1.062,1.062,0,0,1-.493.535,4.362,4.362,0,0,1-.878.425,2.5,2.5,0,0,1-.81.165c-.228,0-.325-.083-.288-.247q.028-.165.178-.741t.357-1.358q.205-.781.425-1.66t.411-1.673q.138-.63.3-1.4.138-.659.343-1.536t.479-1.92a1.791,1.791,0,0,1,.4-.261,2.4,2.4,0,0,1,.426-.151,1.971,1.971,0,0,1,.466-.11,3.623,3.623,0,0,1,.439.027,2.307,2.307,0,0,1,.4.1,1.147,1.147,0,0,1,.371.205q-.083.193-.192.535c-.073.229-.146.472-.22.727q-.11.44-.275.905a12.651,12.651,0,0,1,.81-1,7.265,7.265,0,0,1,.988-.919,5.321,5.321,0,0,1,1.138-.672,3.091,3.091,0,0,1,1.235-.261,1.543,1.543,0,0,1,.933.3,2,2,0,0,1,.645.837,3.7,3.7,0,0,1,.274,1.275,5,5,0,0,1-.205,1.619l-.3,1.206q-.137.577-.342,1.358T110.591,174a2.991,2.991,0,0,0-.124,1.043q.041.439.535.439a2.216,2.216,0,0,0,1.249-.6,13,13,0,0,0,1.523-1.454q.767-.85,1.454-1.742t1.042-1.44a1.391,1.391,0,0,1,.466-.466.336.336,0,0,1,.342-.027c.083.054.124.178.124.371a1.724,1.724,0,0,1-.22.727q-.191.384-.59,1.015t-.946,1.343q-.55.715-1.18,1.44a12.731,12.731,0,0,1-1.316,1.317,8.094,8.094,0,0,1-1.358.961A2.657,2.657,0,0,1,110.316,177.289Z" transform="translate(-68.847 -155.791)" fill="#404140"/><path d="M124.742,170.789q-.137.851-.261,1.619t-.15,1.234a1.361,1.361,0,0,0,.247.988.805.805,0,0,0,.6.3,1.8,1.8,0,0,0,.947-.385,11.023,11.023,0,0,0,1.193-.96q.63-.576,1.262-1.262t1.166-1.3q.535-.618.905-1.084t.508-.6a.624.624,0,0,1,.342-.191.372.372,0,0,1,.289.054.36.36,0,0,1,.11.3,1.075,1.075,0,0,1-.22.549q-.329.521-.851,1.221t-1.152,1.44q-.632.742-1.33,1.454a14.4,14.4,0,0,1-1.4,1.262,9.272,9.272,0,0,1-1.343.891,2.53,2.53,0,0,1-1.166.343,1.328,1.328,0,0,1-.728-.219,2.442,2.442,0,0,1-.616-.576,2.74,2.74,0,0,1-.426-.8,2.24,2.24,0,0,1-.123-.878q.027-.191.083-.659a11.628,11.628,0,0,1-2.319,2.044,4.132,4.132,0,0,1-2.236.754,2.052,2.052,0,0,1-.823-.192,2.024,2.024,0,0,1-.782-.63,3.576,3.576,0,0,1-.562-1.152,5.025,5.025,0,0,1-.165-1.729,9.768,9.768,0,0,1,.631-3.017,9.378,9.378,0,0,1,1.386-2.482,6.777,6.777,0,0,1,1.893-1.675,4.18,4.18,0,0,1,2.126-.616,1.618,1.618,0,0,1,.851.233,2.326,2.326,0,0,1,.658.6,3.707,3.707,0,0,1,.453.81,5.014,5.014,0,0,1,.261.823q.191-.8.357-1.563t.329-1.454q.274-1.015.576-2.2l.63-2.331q.357-1.317.8-2.771a2.521,2.521,0,0,1,.522-.329,2.967,2.967,0,0,1,.466-.164,1.465,1.465,0,0,1,.466-.083,1.648,1.648,0,0,1,.494.069.665.665,0,0,1,.371.356,2.462,2.462,0,0,1,.205.865,11.239,11.239,0,0,1,0,1.563,12.953,12.953,0,0,1-.425,2.634,25.27,25.27,0,0,1-.975,2.949q-.6,1.523-1.385,3.045A30.6,30.6,0,0,1,124.742,170.789Zm-1.618.357q.11-.521.205-1.042t.234-1.069a1.064,1.064,0,0,0-.1.054.87.87,0,0,1-.1.055c-.2.091-.339.086-.411-.014a.82.82,0,0,1-.11-.48q0-.165-.028-.589a4.431,4.431,0,0,0-.151-.878,2.464,2.464,0,0,0-.37-.8.8.8,0,0,0-.686-.343,1.894,1.894,0,0,0-1.29.645,8.484,8.484,0,0,0-1.235,1.563,10.561,10.561,0,0,0-.96,1.962,6.76,6.76,0,0,0-.439,1.866,3.268,3.268,0,0,0,.329,1.892,1.19,1.19,0,0,0,1.042.576,2.025,2.025,0,0,0,1.084-.384,7.552,7.552,0,0,0,1.152-.932,14.888,14.888,0,0,0,1.042-1.125Q122.821,171.529,123.124,171.146Z" transform="translate(-69.721 -155.218)" fill="#404140"/><path d="M142.93,170.858a21.039,21.039,0,0,1-1.865,2.346,17.072,17.072,0,0,1-2.209,2.03,12.1,12.1,0,0,1-2.386,1.439,5.772,5.772,0,0,1-2.373.549,3.449,3.449,0,0,1-1.3-.287,3.741,3.741,0,0,1-1.276-.892,4.337,4.337,0,0,1-.918-1.564,5.361,5.361,0,0,1-.206-2.332,7.235,7.235,0,0,1,.7-2.373,10.848,10.848,0,0,1,1.453-2.291,8.3,8.3,0,0,1,1.949-1.728,4.048,4.048,0,0,1,2.181-.686,1.932,1.932,0,0,1,1.509.522,1.676,1.676,0,0,1,.412,1.289,3.973,3.973,0,0,1-.48,1.564,6.326,6.326,0,0,1-.947,1.289A9.511,9.511,0,0,1,136,170.776q-.616.467-1.166.851-.6.411-1.152.781t-.96.673a2.973,2.973,0,0,0,.247,1.152,2.254,2.254,0,0,0,.549.754,1.956,1.956,0,0,0,.754.412,3.106,3.106,0,0,0,.864.123,3.875,3.875,0,0,0,1.948-.59,13.212,13.212,0,0,0,1.989-1.426,22.036,22.036,0,0,0,1.811-1.742q.837-.9,1.386-1.564a.744.744,0,0,1,.4-.261.344.344,0,0,1,.453.385A1.034,1.034,0,0,1,142.93,170.858Zm-7.023-4.224a1.415,1.415,0,0,0-.782.329,4.1,4.1,0,0,0-.891.946,8.2,8.2,0,0,0-.823,1.509,8.821,8.821,0,0,0-.576,2.043q.329-.246.713-.507c.256-.174.512-.361.768-.563a7.6,7.6,0,0,0,1.645-1.591,2.779,2.779,0,0,0,.522-1.18,1.127,1.127,0,0,0-.11-.754A.539.539,0,0,0,135.907,166.634Z" transform="translate(-70.625 -155.753)" fill="#404140"/><path d="M140.471,176.328a.97.97,0,0,1-.425.4.548.548,0,0,1-.411.026.381.381,0,0,1-.234-.287.819.819,0,0,1,.11-.549l.37-.741q.29-.576.687-1.386t.864-1.755q.466-.946.891-1.8t.782-1.522q.356-.673.521-.975c-.2-.182-.339-.315-.411-.4a1.1,1.1,0,0,1-.165-.536,1.915,1.915,0,0,1,.165-.932,5.488,5.488,0,0,1,.576-1.111,4.544,4.544,0,0,1,.8-.919,1.313,1.313,0,0,1,.85-.384,1.184,1.184,0,0,1,1.084.493,2.33,2.33,0,0,1,.371,1.015,2.7,2.7,0,0,1-.054.905,2.658,2.658,0,0,1-.412.988,1.907,1.907,0,0,0,.22.123,1.034,1.034,0,0,0,.439.068A2.382,2.382,0,0,0,147.7,167a2.071,2.071,0,0,1,.562-.055,1.226,1.226,0,0,1,.768.234,1.878,1.878,0,0,1,.493.576,2.878,2.878,0,0,1,.288.741,4.8,4.8,0,0,1,.124.727,2.25,2.25,0,0,1-.356,1.426q-.439.74-1.07,1.618-.384.55-.767,1.235a2.125,2.125,0,0,0-.329,1.235,1.505,1.505,0,0,0,.191.576c.091.146.348.22.768.22a2.013,2.013,0,0,0,1.029-.342,7.811,7.811,0,0,0,1.152-.878,15.8,15.8,0,0,0,1.166-1.18q.576-.643,1.069-1.262t.837-1.111q.343-.494.508-.713a.711.711,0,0,1,.357-.3.471.471,0,0,1,.385,0,.414.414,0,0,1,.205.329,1.056,1.056,0,0,1-.205.659c-.11.183-.3.476-.563.878s-.585.85-.96,1.343-.792,1-1.249,1.524a14.232,14.232,0,0,1-1.44,1.426,8.934,8.934,0,0,1-1.509,1.056,3.016,3.016,0,0,1-1.44.412,2.3,2.3,0,0,1-1.179-.275,2.431,2.431,0,0,1-.754-.673,2.571,2.571,0,0,1-.412-.877,2.834,2.834,0,0,1-.1-.891,2.381,2.381,0,0,1,.178-.7q.151-.37.356-.768t.439-.8q.232-.4.425-.781.466-.8.755-1.358a2.184,2.184,0,0,0,.287-.947.871.871,0,0,0-.11-.439.379.379,0,0,0-.356-.191,1.458,1.458,0,0,0-.234.013.669.669,0,0,1-.136.014,1.849,1.849,0,0,0-.193.014,3.6,3.6,0,0,1-.37.013,1.462,1.462,0,0,1-.6-.11,2.917,2.917,0,0,0-.466-.164q-.111.193-.494.823t-.891,1.481q-.508.851-1.07,1.783t-1.055,1.741q-.494.811-.837,1.372T140.471,176.328Z" transform="translate(-71.184 -155.654)" fill="#404140"/><path d="M153.38,175.614q1.206-5.076,1.934-8.148t1.111-4.692q.438-1.919.6-2.661.083-.522.137-1.015a7.3,7.3,0,0,0,.055-.905,4.1,4.1,0,0,0-.083-.851,2.115,2.115,0,0,1,.48-.22q.26-.082.508-.137.3-.082.6-.137a3.086,3.086,0,0,1,.549-.055,1.983,1.983,0,0,1,.412.041.312.312,0,0,1,.247.178.674.674,0,0,1,.151.549c-.01.275-.033.558-.069.851q-.11.521-.247,1.125-.329,1.179-.905,3.4-.494,1.893-1.33,5.157t-2.1,8.23a.767.767,0,0,1-.329.192,1.341,1.341,0,0,1-.357.054,3.419,3.419,0,0,1-.412-.027,1.717,1.717,0,0,1-.384-.165,1.874,1.874,0,0,1-.329-.287A1.135,1.135,0,0,1,153.38,175.614Z" transform="translate(-72.05 -155.241)" fill="#404140"/><path d="M174.414,171.1q-.384.549-.988,1.357t-1.248,1.619q-.644.809-1.262,1.481a6.222,6.222,0,0,1-1.029.947,2.856,2.856,0,0,1-.63.274,3.327,3.327,0,0,1-.728.138,2.552,2.552,0,0,1-.7-.041,1.624,1.624,0,0,1-.576-.234,1.433,1.433,0,0,1-.412-.549,4.739,4.739,0,0,1-.26-.8,4.436,4.436,0,0,1-.1-1.235,5.721,5.721,0,0,1-1.454,1.688,6.507,6.507,0,0,1-1.509.864,5.924,5.924,0,0,1-1.646.356,1.636,1.636,0,0,1-.823-.26,2.058,2.058,0,0,1-.741-.824,3.837,3.837,0,0,1-.384-1.454,6.6,6.6,0,0,1,.22-2.126,10.145,10.145,0,0,1,1.221-3.045,12.169,12.169,0,0,1,1.824-2.345,8.135,8.135,0,0,1,1.948-1.468,3.091,3.091,0,0,1,1.591-.439,3.35,3.35,0,0,1,1.207.439,1.321,1.321,0,0,1,.508.81,1.971,1.971,0,0,1-.453,1.413,6.363,6.363,0,0,1,.645-.11c.174-.018.307-.027.4-.027a.585.585,0,0,1,.22.027.636.636,0,0,1,.027.233,4.362,4.362,0,0,1-.083.645q-.082.466-.247,1.262t-.439,2.057c-.037.165-.068.315-.1.453s-.054.274-.082.411-.06.3-.1.48-.083.412-.138.686a3.423,3.423,0,0,0-.014.535,2,2,0,0,0,.1.535.859.859,0,0,0,.261.4.759.759,0,0,0,.508.151,1.3,1.3,0,0,0,.713-.342,8.035,8.035,0,0,0,.932-.878q.494-.535,1.029-1.18t1-1.248q.466-.6.837-1.069c.248-.311.425-.539.535-.686a.817.817,0,0,1,.439-.289.3.3,0,0,1,.329.124.655.655,0,0,1,.041.493A2.056,2.056,0,0,1,174.414,171.1Zm-8.038,1.207q.137-.549.329-1.289t.329-1.427q.137-.685.205-1.139c.045-.3.032-.443-.041-.425a2.651,2.651,0,0,0-.3.083,1.506,1.506,0,0,1-.356.083,3.719,3.719,0,0,0-.439.082,2.567,2.567,0,0,0,.261-.726,1.619,1.619,0,0,0,.013-.453.659.659,0,0,0-.11-.3q-.3-.246-1.055.4a9.324,9.324,0,0,0-1.743,2.373,7.309,7.309,0,0,0-.658,1.522,9.609,9.609,0,0,0-.343,1.524,5.329,5.329,0,0,0-.041,1.248,1.218,1.218,0,0,0,.22.7.9.9,0,0,0,.686.288,1.85,1.85,0,0,0,.782-.22,4.521,4.521,0,0,0,.795-.535,6.387,6.387,0,0,0,.714-.686,7.032,7.032,0,0,0,.522-.659A1.491,1.491,0,0,0,166.376,172.308Z" transform="translate(-72.454 -155.749)" fill="#404140"/><path d="M181.522,177.289a2.344,2.344,0,0,1-1.084-.234,2,2,0,0,1-.727-.617,2.07,2.07,0,0,1-.357-.891,2.752,2.752,0,0,1,.054-1.084q.083-.384.275-1.029t.4-1.4q.207-.754.385-1.509a9.887,9.887,0,0,0,.234-1.372,2.939,2.939,0,0,0-.055-1.014.463.463,0,0,0-.466-.4,1.712,1.712,0,0,0-.905.289,4.977,4.977,0,0,0-.947.781,11.3,11.3,0,0,0-.96,1.139q-.481.643-.947,1.329c-.165.623-.3,1.166-.412,1.633s-.205.887-.288,1.262-.16.7-.233.988-.138.553-.192.809a1.065,1.065,0,0,1-.494.535,4.33,4.33,0,0,1-.877.425,2.5,2.5,0,0,1-.81.165q-.343,0-.288-.247.028-.165.178-.741t.357-1.358q.2-.781.424-1.66t.412-1.673q.137-.63.3-1.4.136-.659.343-1.536t.479-1.92a1.77,1.77,0,0,1,.4-.261,2.362,2.362,0,0,1,.425-.151,1.982,1.982,0,0,1,.466-.11,3.624,3.624,0,0,1,.439.027,2.287,2.287,0,0,1,.4.1,1.137,1.137,0,0,1,.371.205c-.054.129-.119.307-.192.535s-.146.472-.22.727q-.11.44-.274.905a12.614,12.614,0,0,1,.809-1,7.376,7.376,0,0,1,.988-.919,5.351,5.351,0,0,1,1.139-.672,3.088,3.088,0,0,1,1.235-.261,1.54,1.54,0,0,1,.932.3,1.983,1.983,0,0,1,.645.837,3.679,3.679,0,0,1,.275,1.275,4.974,4.974,0,0,1-.206,1.619l-.3,1.206q-.138.577-.342,1.358T181.8,174a3.013,3.013,0,0,0-.124,1.043q.042.439.536.439a2.219,2.219,0,0,0,1.249-.6,13.076,13.076,0,0,0,1.522-1.454q.768-.85,1.454-1.742t1.042-1.44a1.392,1.392,0,0,1,.467-.466.336.336,0,0,1,.342-.027c.083.054.124.178.124.371a1.738,1.738,0,0,1-.22.727q-.193.384-.59,1.015t-.947,1.343q-.549.715-1.179,1.44a12.83,12.83,0,0,1-1.317,1.317,8.125,8.125,0,0,1-1.357.961A2.656,2.656,0,0,1,181.522,177.289Z" transform="translate(-73.252 -155.791)" fill="#404140"/><path d="M195.948,170.789q-.138.851-.261,1.619t-.151,1.234a1.361,1.361,0,0,0,.247.988.807.807,0,0,0,.6.3,1.794,1.794,0,0,0,.946-.385,10.842,10.842,0,0,0,1.193-.96q.63-.576,1.263-1.262t1.165-1.3q.536-.618.906-1.084c.246-.311.416-.512.507-.6a.626.626,0,0,1,.343-.191.369.369,0,0,1,.288.054.357.357,0,0,1,.11.3,1.067,1.067,0,0,1-.22.549q-.329.521-.851,1.221t-1.152,1.44q-.63.742-1.33,1.454a14.292,14.292,0,0,1-1.4,1.262,9.219,9.219,0,0,1-1.343.891,2.527,2.527,0,0,1-1.166.343,1.327,1.327,0,0,1-.727-.219,2.445,2.445,0,0,1-.617-.576,2.76,2.76,0,0,1-.425-.8,2.242,2.242,0,0,1-.124-.878q.028-.191.083-.659a11.649,11.649,0,0,1-2.318,2.044,4.137,4.137,0,0,1-2.236.754,2.056,2.056,0,0,1-.824-.192,2.022,2.022,0,0,1-.781-.63,3.538,3.538,0,0,1-.562-1.152,5,5,0,0,1-.165-1.729,9.769,9.769,0,0,1,.631-3.017,9.327,9.327,0,0,1,1.386-2.482,6.788,6.788,0,0,1,1.892-1.675,4.18,4.18,0,0,1,2.126-.616,1.615,1.615,0,0,1,.851.233,2.329,2.329,0,0,1,.659.6,3.748,3.748,0,0,1,.453.81,5.011,5.011,0,0,1,.26.823q.191-.8.356-1.563t.329-1.454q.274-1.015.576-2.2.274-1.015.631-2.331t.8-2.771a2.516,2.516,0,0,1,.521-.329,2.943,2.943,0,0,1,.467-.164,1.46,1.46,0,0,1,.466-.083,1.646,1.646,0,0,1,.493.069.66.66,0,0,1,.371.356,2.443,2.443,0,0,1,.205.865,10.958,10.958,0,0,1,0,1.563,12.892,12.892,0,0,1-.425,2.634,25.436,25.436,0,0,1-.974,2.949q-.6,1.523-1.386,3.045A30.8,30.8,0,0,1,195.948,170.789Zm-1.619.357q.11-.521.205-1.042t.234-1.069a1.034,1.034,0,0,0-.1.054,1.1,1.1,0,0,1-.1.055q-.3.137-.412-.014a.827.827,0,0,1-.11-.48q0-.165-.027-.589a4.429,4.429,0,0,0-.151-.878,2.446,2.446,0,0,0-.371-.8.8.8,0,0,0-.686-.343,1.89,1.89,0,0,0-1.289.645,8.444,8.444,0,0,0-1.235,1.563,10.564,10.564,0,0,0-.961,1.962,6.794,6.794,0,0,0-.439,1.866,3.275,3.275,0,0,0,.329,1.892,1.192,1.192,0,0,0,1.042.576,2.025,2.025,0,0,0,1.084-.384,7.507,7.507,0,0,0,1.152-.932,14.9,14.9,0,0,0,1.043-1.125Q194.027,171.529,194.329,171.146Z" transform="translate(-74.126 -155.218)" fill="#404140"/></g></g><g transform="translate(119.002 101.79)" style="isolation:isolate"><g transform="translate(0 0)" style="isolation:isolate"><path d="M124.97,124.381a1.558,1.558,0,0,1-1.136-.541,4.016,4.016,0,0,1-.848-1.55,11.573,11.573,0,0,1-.467-2.482,19.769,19.769,0,0,1,.011-3.364,20.6,20.6,0,0,1,.339-2.557q.255-1.3.573-2.525t.679-2.3q.36-1.082.668-1.921t.509-1.347c.135-.34.216-.538.245-.594a.768.768,0,0,1,.244-.223,2.048,2.048,0,0,1,.424-.2,3.677,3.677,0,0,1,.531-.138,3.032,3.032,0,0,1,.541-.053,3.7,3.7,0,0,1,.4.021,3.068,3.068,0,0,1,.339.064.963.963,0,0,1,.3.128,1.736,1.736,0,0,0-.456.457,6.419,6.419,0,0,0-.414.646,6.526,6.526,0,0,0-.425.828q-.425.891-.891,2.164t-.881,2.706q-.414,1.433-.721,2.908a22.554,22.554,0,0,0-.414,2.768,12.477,12.477,0,0,0,.191,3.9q.36,1.283,1.019,1.283a.976.976,0,0,0,.678-.4,6.468,6.468,0,0,0,.733-1.039c.247-.425.492-.9.732-1.422s.467-1.039.679-1.549q.191-.488.414-1.094t.446-1.241q.222-.636.435-1.263t.382-1.135q0-.636.022-1.347c.014-.474.045-.956.095-1.443s.117-.969.2-1.444a8.013,8.013,0,0,1,.34-1.3,4.411,4.411,0,0,1,1-1.688,1.732,1.732,0,0,1,1-.562.438.438,0,0,1,.424.255,1.375,1.375,0,0,1,.107.678,12.475,12.475,0,0,1-.191,1.327q-.149.775-.351,1.655t-.456,1.783l-.488,1.73a32.354,32.354,0,0,0-.467,3.957,22.173,22.173,0,0,0,.032,3.036,6.959,6.959,0,0,0,.4,1.952c.19.459.42.69.69.69a1.391,1.391,0,0,0,.987-.637,8.588,8.588,0,0,0,1.029-1.688,23.85,23.85,0,0,0,.987-2.387q.477-1.337.87-2.749t.648-2.78a23.66,23.66,0,0,0,.34-2.473q.063-.912.064-1.8,0-.764-.064-1.634a9.834,9.834,0,0,0-.234-1.57,2.145,2.145,0,0,1,.743-.382,4.317,4.317,0,0,1,.508-.149,2.916,2.916,0,0,1,.361-.064c.113-.013.226-.024.34-.031a.956.956,0,0,1,.318.031,2.727,2.727,0,0,1,.18.765c.036.311.06.615.075.913a9.742,9.742,0,0,1-.022,1.1,39.8,39.8,0,0,1-1.591,8.521,30.176,30.176,0,0,1-1.327,3.565,20.886,20.886,0,0,1-1.507,2.812,8.494,8.494,0,0,1-1.549,1.846,2.331,2.331,0,0,1-1.475.658,1.389,1.389,0,0,1-1.189-.626,4.58,4.58,0,0,1-.679-1.57,11.142,11.142,0,0,1-.3-2.026q-.065-1.082-.043-2-.488,1.189-1.051,2.292a16.032,16.032,0,0,1-1.167,1.964,7.1,7.1,0,0,1-1.231,1.379A1.952,1.952,0,0,1,124.97,124.381Z" transform="translate(-122.452 -104.229)" fill="#404140"/></g></g></g></svg>