<svg xmlns="http://www.w3.org/2000/svg" width="27.941" height="27.942" viewBox="0 0 27.941 27.942"><g transform="translate(-26.088 -1402.952)"><path d="M11.977,12.975H2a1,1,0,0,1-1-1V2A1,1,0,0,1,2,1h9.979a1,1,0,0,1,1,1v9.979A1,1,0,0,1,11.977,12.975ZM3,10.979h7.983V3H3Z" transform="translate(25.088 1401.952)"/><path d="M19.977,12.975H10a1,1,0,0,1-1-1V2a1,1,0,0,1,1-1h9.979a1,1,0,0,1,1,1v9.979A1,1,0,0,1,19.977,12.975Zm-8.981-2h7.983V3H11Z" transform="translate(33.054 1401.952)"/><path d="M11.977,20.975H2a1,1,0,0,1-1-1V10A1,1,0,0,1,2,9h9.979a1,1,0,0,1,1,1v9.979A1,1,0,0,1,11.977,20.975ZM3,18.979h7.983V11H3Z" transform="translate(25.088 1409.919)"/><path d="M19.977,20.975H10a1,1,0,0,1-1-1V10a1,1,0,0,1,1-1h9.979a1,1,0,0,1,1,1v9.979A1,1,0,0,1,19.977,20.975Zm-8.981-2h7.983V11H11Z" transform="translate(33.054 1409.919)"/></g></svg>