<svg xmlns="http://www.w3.org/2000/svg" width="28.374" height="28.375" viewBox="0 0 28.374 28.375"><g transform="translate(206.272 -15134.52)"><path d="M28.4,29.375H1.977A.977.977,0,0,1,1,28.4V1.977A.977.977,0,0,1,1.977,1H28.4a.977.977,0,0,1,.977.977V28.4A.977.977,0,0,1,28.4,29.375ZM2.955,27.42H27.419V2.955H2.955Z" transform="translate(-207.272 15133.52)"/><path d="M19.751,20.729H9.977A.977.977,0,0,1,9,19.752V9.977A.977.977,0,0,1,9.977,9h9.774a.977.977,0,0,1,.977.977v9.774A.977.977,0,0,1,19.751,20.729Zm-8.8-1.955h7.819V10.955H10.955Z" transform="translate(-198.626 15142.166)"/></g></svg>