<svg xmlns="http://www.w3.org/2000/svg" width="22.713" height="31.371" viewBox="0 0 22.713 31.371"><g transform="translate(-119.684 -1474.952)"><path d="M454.71,1057.674h0l-6.34-3.653v-4.762l5.761,3.314a1.648,1.648,0,1,0,2.854,1.642l1.567.9-3.842,2.557Z" transform="translate(-328.686 445.133)"/><path d="M486.21,1057.674h0l6.34-3.653v-4.762l-5.761,3.314a1.649,1.649,0,1,1-2.77,1.788,1.568,1.568,0,0,1-.084-.146l-1.569.9,3.844,2.558Z" transform="translate(-350.228 445.133)"/><rect width="3.663" height="3.663" transform="translate(128.374 1503.733) rotate(-45)"/><path d="M463.39,1001.581v2.49l5.495,2.925v9.449l-9.158,4.875-9.159-4.875V1007l5.495-2.925v-2.49l-7.693,4.095v12.089l11.357,6.045,11.356-6.045v-12.089Z" transform="translate(-328.686 475.345)"/><path d="M476.37,996.768l1.076-.572,1.122.572v12.273h-2.2Z" transform="translate(-346.428 478.757)"/></g></svg>