<svg xmlns="http://www.w3.org/2000/svg" xmlns:xlink="http://www.w3.org/1999/xlink" width="51.165" height="70.668" viewBox="0 0 51.165 70.668"><defs><linearGradient id="a" x1="0.5" x2="0.5" y2="1" gradientUnits="objectBoundingBox"><stop offset="0" stop-color="#0c4dca"/><stop offset="1" stop-color="#4e2d84"/></linearGradient></defs><g transform="translate(-260.513 -241.708)"><g transform="translate(260.513 285.497)"><path d="M274.795,299.957h0l-14.282-8.229V281l12.979,7.467a3.714,3.714,0,1,0,6.241,4.028,3.224,3.224,0,0,0,.189-.334l3.53,2.031-8.655,5.762Z" transform="translate(-260.513 -281)" fill="url(#a)"/></g><g transform="translate(288.567 285.497)"><path d="M294.348,299.957h0l14.282-8.229V281l-12.979,7.467a3.714,3.714,0,1,1-6.241,4.028,3.8,3.8,0,0,1-.189-.334l-3.534,2.031,8.659,5.763Z" transform="translate(-285.686 -281)" fill="url(#a)"/></g><g transform="translate(280.09 300.705)"><rect width="8.253" height="8.253" transform="translate(0 5.835) rotate(-45)" fill="url(#a)"/></g><g transform="translate(260.513 246.151)"><path d="M294.348,245.7V251.3l12.378,6.589v21.286L286.1,290.159l-20.631-10.981V257.893l12.378-6.589V245.7l-17.33,9.224v27.233L286.1,295.769l25.582-13.616V254.919Z" transform="translate(-260.513 -245.695)" fill="url(#a)"/></g><g transform="translate(283.62 241.708)"><path d="M281.247,243l2.425-1.289L286.2,243v27.645h-4.952Z" transform="translate(-281.247 -241.708)" fill="url(#a)"/></g></g></svg>