<svg xmlns="http://www.w3.org/2000/svg" xmlns:xlink="http://www.w3.org/1999/xlink" width="160" height="46.354" viewBox="0 0 160 46.354"><defs><linearGradient id="a" x1="0.5" x2="0.5" y2="1" gradientUnits="objectBoundingBox"><stop offset="0" stop-color="#0c4dca"/><stop offset="1" stop-color="#4e2d84"/></linearGradient></defs><g transform="translate(-260.513 -241.708)"><g transform="translate(260.513 270.431)"><path d="M269.881,293.435h0l-9.368-5.4V281l8.514,4.9a2.436,2.436,0,1,0,4.094,2.642,2.117,2.117,0,0,0,.124-.219l2.315,1.332-5.677,3.779Z" transform="translate(-260.513 -281)" fill="url(#a)"/></g><g transform="translate(278.915 270.431)"><path d="M291.368,293.435h0l9.368-5.4V281l-8.513,4.9a2.436,2.436,0,0,1-4.094,2.642,2.482,2.482,0,0,1-.124-.219l-2.318,1.332,5.68,3.78Z" transform="translate(-285.686 -281)" fill="url(#a)"/></g><g transform="translate(273.354 280.407)"><rect width="5.413" height="5.413" transform="translate(0 3.828) rotate(-45)" fill="url(#a)"/></g><g transform="translate(260.513 244.623)"><path d="M282.707,245.7v3.679l8.12,4.322v13.963l-13.533,7.2-13.533-7.2V253.7l8.119-4.322V245.7l-11.367,6.051v17.863l16.781,8.932,16.781-8.932V251.746Z" transform="translate(-260.513 -245.695)" fill="url(#a)"/></g><g transform="translate(275.67 241.708)"><path d="M281.247,242.554l1.591-.846,1.657.846v18.134h-3.248Z" transform="translate(-281.247 -241.708)" fill="url(#a)"/></g><g transform="translate(308.854 257.171)" style="isolation:isolate"><g style="isolation:isolate"><path d="M339.17,265.572h-4.812v12.487h-2.9V265.572h-4.812v-2.565H339.17Z" transform="translate(-326.641 -262.9)" fill="url(#a)"/><path d="M358.175,275.494v2.565H347.724V263.007h10.261v2.565H350.65V269.2h6.338v2.374H350.65v3.922Z" transform="translate(-332.312 -262.9)" fill="url(#a)"/><path d="M364.862,270.395a7.8,7.8,0,0,1,.5-2.723,7.3,7.3,0,0,1,3.784-4.124,7.193,7.193,0,0,1,3.138-.657,6.843,6.843,0,0,1,3.593.912,5.82,5.82,0,0,1,2.258,2.374l-2.248,1.548a3.851,3.851,0,0,0-.72-1.071,3.653,3.653,0,0,0-.912-.689,4.056,4.056,0,0,0-1.018-.371,4.838,4.838,0,0,0-1.039-.116,3.949,3.949,0,0,0-1.918.445,4.212,4.212,0,0,0-1.357,1.155,5.1,5.1,0,0,0-.816,1.611,6.089,6.089,0,0,0-.276,1.791,5.839,5.839,0,0,0,.317,1.919,5.107,5.107,0,0,0,.9,1.621,4.484,4.484,0,0,0,1.4,1.124,3.815,3.815,0,0,0,1.792.424,4.7,4.7,0,0,0,1.059-.126,4.06,4.06,0,0,0,1.05-.4,3.97,3.97,0,0,0,.923-.711,3.257,3.257,0,0,0,.678-1.049l2.4,1.377a4.527,4.527,0,0,1-1.029,1.495,6.6,6.6,0,0,1-1.505,1.091,7.671,7.671,0,0,1-1.791.679,7.869,7.869,0,0,1-1.866.233,6.405,6.405,0,0,1-2.947-.678,7.667,7.667,0,0,1-2.3-1.771,8.181,8.181,0,0,1-1.5-2.48A7.725,7.725,0,0,1,364.862,270.395Z" transform="translate(-336.922 -262.869)" fill="url(#a)"/><path d="M400.052,263.007v15.052h-2.9v-6.423h-6.826v6.423H387.4V263.007h2.925v6.084h6.826v-6.084Z" transform="translate(-342.983 -262.9)" fill="url(#a)"/><path d="M416.481,278.125a6.835,6.835,0,0,1-3-.646,7.355,7.355,0,0,1-2.311-1.717,7.957,7.957,0,0,1-2.024-5.268,7.559,7.559,0,0,1,.561-2.884,7.968,7.968,0,0,1,1.548-2.438,7.41,7.41,0,0,1,2.342-1.685,6.96,6.96,0,0,1,2.948-.626,6.61,6.61,0,0,1,2.978.668,7.446,7.446,0,0,1,2.3,1.749,8.058,8.058,0,0,1,1.485,2.458,7.762,7.762,0,0,1,.529,2.8,7.608,7.608,0,0,1-.551,2.873,7.808,7.808,0,0,1-1.526,2.417,7.335,7.335,0,0,1-2.332,1.675A6.944,6.944,0,0,1,416.481,278.125Zm-4.368-7.631a6.07,6.07,0,0,0,.3,1.887,5.042,5.042,0,0,0,.859,1.611,4.273,4.273,0,0,0,1.378,1.124,4.265,4.265,0,0,0,3.73-.011,4.257,4.257,0,0,0,1.379-1.156,5.145,5.145,0,0,0,.848-1.621,6.032,6.032,0,0,0,.286-1.834,5.871,5.871,0,0,0-.307-1.887,5.2,5.2,0,0,0-.869-1.611,4.158,4.158,0,0,0-1.378-1.113,4.3,4.3,0,0,0-3.721.021,4.188,4.188,0,0,0-1.378,1.145,5.128,5.128,0,0,0-.837,1.611A6.025,6.025,0,0,0,412.113,270.494Z" transform="translate(-348.833 -262.861)" fill="url(#a)"/><path d="M437.572,263.049h2.692l1.7,4.983,1.7-4.983h2.714L443.8,269.9l1.907,4.812,4.261-11.7h3.181l-6.127,15.052h-2.458l-2.608-6.318-2.608,6.318h-2.458l-6.084-15.052h3.138l4.282,11.7,1.866-4.812Z" transform="translate(-354.66 -262.9)" fill="url(#a)"/><path d="M464.884,278.059V263.007h2.926v12.487h7.674v2.565Z" transform="translate(-363.825 -262.9)" fill="url(#a)"/></g></g></g></svg>