<svg xmlns="http://www.w3.org/2000/svg" width="92.369" height="70.092" viewBox="0 0 92.369 70.092"><path d="M59.137,27.8l17.49,9.989V53.685a3.978,3.978,0,0,0,1.814,3.345L96.122,68.544a9.585,9.585,0,0,0,10.451,0L124.255,57.03a3.979,3.979,0,0,0,1.813-3.345V37.794l14-8v7.468a7.943,7.943,0,0,0-5.6,7.578V64.192a2.333,2.333,0,0,0,2.332,2.332H148a2.332,2.332,0,0,0,2.332-2.332V44.844a7.942,7.942,0,0,0-5.6-7.578V25.78a2.333,2.333,0,0,0-1.176-2.025L102.5.308a2.335,2.335,0,0,0-2.314,0L59.137,23.755a2.332,2.332,0,0,0,0,4.05ZM121.4,53.32,104.027,64.635a4.914,4.914,0,0,1-5.36,0L81.291,53.32V40.457l18.9,10.793a2.332,2.332,0,0,0,2.313,0l18.9-10.793Zm24.263,8.539h-6.53V44.844a3.265,3.265,0,0,1,6.53,0ZM101.347,5.019l32.268,18.429H107.862a6.994,6.994,0,1,0,.152,4.664h25.6L101.347,46.54,65,25.78Zm2.331,20.973a2.332,2.332,0,1,1-2.332-2.332A2.334,2.334,0,0,1,103.678,25.992Zm0,0" transform="translate(-57.961 -0.001)" fill="#0a0a0a"/></svg>