<svg xmlns="http://www.w3.org/2000/svg" width="201.304" height="44.446" viewBox="0 0 201.304 44.446"><g transform="translate(0 -94.229)"><g style="isolation:isolate"><g style="isolation:isolate"><path d="M79.574,115.985V114.19l1.59-.306V103.168l-1.59-.308v-1.8h6.1v1.8l-1.517.308v10.716l1.517.306v1.795Zm3.958-3.66-1.548-1.774,7.311-7.536.02-.032-1.476-.123v-1.8h6.142v1.8l-1.405.278Zm4.635,3.66V114.19l1.395-.123h.01l-3.794-5.228,1.979-1.98,5.291,7.076,1.466.255v1.795Z" fill="#0a0b0b"/><path d="M102.8,116.2a7.456,7.456,0,0,1-3.122-.615,4.775,4.775,0,0,1-2.1-1.783,5.163,5.163,0,0,1-.748-2.841v-7.793l-1.59-.308v-1.8h6.183v1.8l-1.6.308v7.793a3.383,3.383,0,0,0,.359,1.641,2.278,2.278,0,0,0,1.025.979,3.615,3.615,0,0,0,1.589.322,3.711,3.711,0,0,0,1.616-.322,2.275,2.275,0,0,0,1.03-.979,3.394,3.394,0,0,0,.359-1.641v-7.793l-1.59-.308v-1.8H110.4v1.8l-1.6.308v7.793a5.166,5.166,0,0,1-.753,2.846,4.777,4.777,0,0,1-2.1,1.784A7.571,7.571,0,0,1,102.8,116.2Z" fill="#0a0b0b"/><path d="M111.361,115.985V114.19l1.59-.306V103.168l-1.59-.308v-1.8h7.076a7.4,7.4,0,0,1,2.953.533,4.016,4.016,0,0,1,2.553,3.917,4.288,4.288,0,0,1-.656,2.348,4.539,4.539,0,0,1-1.825,1.63,5.942,5.942,0,0,1-2.7.6h-2.82v3.8l1.6.306v1.795Zm4.584-8.2h2.441a2.9,2.9,0,0,0,1.932-.549,1.98,1.98,0,0,0,.641-1.593,2.208,2.208,0,0,0-.636-1.657,2.6,2.6,0,0,0-1.886-.621h-2.492Zm5.025,8.2-2.513-6.449,2.7-.667,2.174,5.025,1.272.3v1.795Z" fill="#0a0b0b"/><path d="M131.89,116.2a11.406,11.406,0,0,1-3-.369,8.671,8.671,0,0,1-2.666-1.281v-3.61h2.317l.317,2.123a3.5,3.5,0,0,0,1.272.63,6.151,6.151,0,0,0,1.764.242,3.675,3.675,0,0,0,1.369-.226,1.847,1.847,0,0,0,.85-.641,1.65,1.65,0,0,0,.293-.979,1.748,1.748,0,0,0-.261-.948,2.378,2.378,0,0,0-.862-.759,8.274,8.274,0,0,0-1.625-.662,15.87,15.87,0,0,1-2.938-1.143,4.684,4.684,0,0,1-1.743-1.487,3.667,3.667,0,0,1-.579-2.087,3.552,3.552,0,0,1,.671-2.138,4.529,4.529,0,0,1,1.862-1.461,6.882,6.882,0,0,1,2.748-.553,9.505,9.505,0,0,1,3.05.41,7.21,7.21,0,0,1,2.292,1.2v3.363h-2.246l-.389-2.051a4.027,4.027,0,0,0-1.052-.429,5.586,5.586,0,0,0-1.5-.186,3.441,3.441,0,0,0-1.266.216,1.992,1.992,0,0,0-.867.626,1.572,1.572,0,0,0-.317.994,1.439,1.439,0,0,0,.276.877,2.629,2.629,0,0,0,.928.707,13.106,13.106,0,0,0,1.8.713,9.5,9.5,0,0,1,3.748,1.814,3.771,3.771,0,0,1,1.276,2.964,3.6,3.6,0,0,1-.686,2.2,4.365,4.365,0,0,1-1.928,1.43A7.7,7.7,0,0,1,131.89,116.2Z" fill="#0a0b0b"/><path d="M138.586,115.985V114.19l1.589-.306V103.168l-1.589-.308v-1.8h6.173v1.8l-1.59.308v10.716l1.59.306v1.795Z" fill="#0a0b0b"/><path d="M149.342,115.985V114.19l1.6-.306V103.362h-2.716l-.164,1.785h-2.267v-4.091h13.32v4.091h-2.276l-.164-1.785h-2.738v10.522l1.61.306v1.795Z" fill="#0a0b0b"/><path d="M166.7,116.2a6.562,6.562,0,0,1-2.748-.563,6.3,6.3,0,0,1-2.139-1.584,7.2,7.2,0,0,1-1.378-2.4,9.077,9.077,0,0,1-.482-3.019v-.227a9.047,9.047,0,0,1,.482-3.009,7.288,7.288,0,0,1,1.374-2.405,6.2,6.2,0,0,1,2.132-1.589,6.569,6.569,0,0,1,2.748-.563,6.66,6.66,0,0,1,2.769.563,6.279,6.279,0,0,1,2.153,1.589A7.271,7.271,0,0,1,173,105.4a9,9,0,0,1,.487,3.009v.227a9.026,9.026,0,0,1-.487,3.019,7.208,7.208,0,0,1-1.39,2.4,6.314,6.314,0,0,1-2.148,1.584A6.619,6.619,0,0,1,166.7,116.2Zm0-2.327a3.33,3.33,0,0,0,2.112-.656,3.958,3.958,0,0,0,1.266-1.835,8.081,8.081,0,0,0,.426-2.748v-.246a7.888,7.888,0,0,0-.431-2.723,3.983,3.983,0,0,0-1.276-1.83,3.335,3.335,0,0,0-2.108-.656,3.276,3.276,0,0,0-2.081.65,3.914,3.914,0,0,0-1.246,1.82,8.18,8.18,0,0,0-.415,2.739v.246a8.268,8.268,0,0,0,.415,2.748,3.92,3.92,0,0,0,1.251,1.835A3.278,3.278,0,0,0,166.7,113.873Z" fill="#0a0b0b"/></g></g><g style="isolation:isolate"><g style="isolation:isolate"><path d="M84.894,135.159a4.8,4.8,0,0,1-2.076-.439,4.536,4.536,0,0,1-1.593-1.254,5.776,5.776,0,0,1-1.021-1.938,8.248,8.248,0,0,1-.357-2.5v-.157a8.346,8.346,0,0,1,.352-2.5,5.8,5.8,0,0,1,1.017-1.942,4.528,4.528,0,0,1,1.594-1.258,4.8,4.8,0,0,1,2.075-.439,4.877,4.877,0,0,1,2.1.439,4.466,4.466,0,0,1,1.594,1.258,5.725,5.725,0,0,1,1,1.942,8.548,8.548,0,0,1,.344,2.5v.157a8.548,8.548,0,0,1-.344,2.5,5.724,5.724,0,0,1-1,1.938A4.452,4.452,0,0,1,87,134.72,4.884,4.884,0,0,1,84.894,135.159Zm0-.871a3.654,3.654,0,0,0,2.211-.656,4.021,4.021,0,0,0,1.366-1.842,7.556,7.556,0,0,0,.465-2.765v-.174a7.423,7.423,0,0,0-.469-2.756,4.073,4.073,0,0,0-1.374-1.838,3.637,3.637,0,0,0-2.208-.66,3.556,3.556,0,0,0-2.158.66,4.166,4.166,0,0,0-1.39,1.843,7.2,7.2,0,0,0-.486,2.751v.174a7.263,7.263,0,0,0,.486,2.765,4.126,4.126,0,0,0,1.394,1.842A3.6,3.6,0,0,0,84.894,134.288Z" fill="#0a0b0b"/><path d="M91.468,134.985v-.722l1.353-.108V123.737l-1.353-.107V122.9h2.357l6.906,10.393.05-.017v-9.538l-1.411-.107V122.9h3.7v.731l-1.353.107v11.248h-.929l-6.981-10.433-.05.015v9.588l1.411.108v.722Z" fill="#0a0b0b"/><path d="M104.342,134.985v-.722l1.353-.108V123.737l-1.353-.107V122.9h3.7v.731l-1.354.107v10.426h5.073l.09-1.95h.814v2.772Z" fill="#0a0b0b"/><path d="M114.171,134.985v-.722l1.352-.108V123.737l-1.352-.107V122.9h3.7v.731l-1.353.107v10.418l1.353.108v.722Z" fill="#0a0b0b"/><path d="M119.135,134.985v-.722l1.352-.108V123.737l-1.352-.107V122.9h2.357l6.906,10.393.05-.017v-9.538l-1.411-.107V122.9h3.7v.731l-1.353.107v11.248h-.93l-6.98-10.433-.05.015v9.588l1.411.108v.722Z" fill="#0a0b0b"/><path d="M132.009,134.985v-.722l1.353-.108V123.737l-1.353-.107V122.9h8.682v2.649h-.846l-.083-1.826h-5.4v4.573h4.872v.83h-4.872v5.056h5.662l.083-1.844h.837v2.648Z" fill="#0a0b0b"/><path d="M146.834,134.985v-.722l1.353-.108V123.737l-1.353-.107V122.9h3.7v.731l-1.352.107v10.418l1.352.108v.722Zm2.208-3.361-.489-.748,6.408-7.154.008-.042-1.17-.05V122.9h3.4v.731l-1.038.092Zm5.089,3.361v-.722l1.186-.058.009-.024-3.968-5.463.648-.731,4.556,6.176,1.046.1v.722Z" fill="#0a0b0b"/><path d="M164.274,135.159a4.835,4.835,0,0,1-2.2-.476,3.553,3.553,0,0,1-1.489-1.387,4.24,4.24,0,0,1-.54-2.2v-7.356l-1.353-.107V122.9h3.7v.731l-1.353.107v7.356a3.468,3.468,0,0,0,.411,1.747,2.736,2.736,0,0,0,1.142,1.1,3.609,3.609,0,0,0,1.684.377,3.7,3.7,0,0,0,1.694-.374,2.73,2.73,0,0,0,1.154-1.091,3.464,3.464,0,0,0,.415-1.755v-7.356l-1.354-.107V122.9h3.7v.731l-1.353.107v7.356a4.3,4.3,0,0,1-.536,2.224,3.457,3.457,0,0,1-1.5,1.373A5.036,5.036,0,0,1,164.274,135.159Z" fill="#0a0b0b"/><path d="M171.056,134.993v-.73l1.353-.108V123.737l-1.353-.107v-.723h5.1a5.584,5.584,0,0,1,2.192.383,2.939,2.939,0,0,1,1.365,1.111,3.27,3.27,0,0,1,.47,1.8,2.884,2.884,0,0,1-1.848,2.835,5.35,5.35,0,0,1-2.054.377l-2.872.025v4.715l1.353.108v.73Zm2.349-6.383h2.648a3.533,3.533,0,0,0,2.374-.664,2.217,2.217,0,0,0,.756-1.752,2.252,2.252,0,0,0-.756-1.813,3.437,3.437,0,0,0-2.275-.644H173.4Zm5.778,6.383-2.6-6,1-.009,2.308,5.205.988.067v.738Z" fill="#0a0b0b"/><path d="M186.785,135.159a7.061,7.061,0,0,1-2.07-.314,7.187,7.187,0,0,1-2-.981v-2.34h.83l.124,1.884a5.907,5.907,0,0,0,1.518.681,5.832,5.832,0,0,0,1.594.224,4.329,4.329,0,0,0,1.665-.294,2.573,2.573,0,0,0,1.1-.823,1.98,1.98,0,0,0,.394-1.216,2.127,2.127,0,0,0-.319-1.166,2.679,2.679,0,0,0-1.038-.883,8.985,8.985,0,0,0-1.946-.7,9.558,9.558,0,0,1-2.155-.8,3.2,3.2,0,0,1-1.228-1.1,2.873,2.873,0,0,1-.394-1.531,2.723,2.723,0,0,1,.482-1.6,3.206,3.206,0,0,1,1.348-1.088,4.839,4.839,0,0,1,2.021-.393,6.075,6.075,0,0,1,2.179.365,5.393,5.393,0,0,1,1.623.937v2.159H189.7l-.125-1.71a3.913,3.913,0,0,0-1.236-.664,5.041,5.041,0,0,0-1.619-.242,3.638,3.638,0,0,0-1.528.295,2.37,2.37,0,0,0-.983.793,1.941,1.941,0,0,0-.344,1.129,2.038,2.038,0,0,0,.274,1.066,2.293,2.293,0,0,0,.946.814,9.436,9.436,0,0,0,1.885.677,7.409,7.409,0,0,1,2.97,1.365,2.822,2.822,0,0,1,1.005,2.254,2.763,2.763,0,0,1-.527,1.681,3.443,3.443,0,0,1-1.465,1.116A5.515,5.515,0,0,1,186.785,135.159Z" fill="#0a0b0b"/><path d="M192.372,134.985v-.722l1.354-.108V123.737l-1.354-.107V122.9h8.683v2.649h-.847l-.083-1.826h-5.4v4.573h4.872v.83h-4.872v5.056h5.66l.084-1.844h.838v2.648Z" fill="#0a0b0b"/></g></g><path d="M.746,111.857l11.093,6.335v10.079a2.526,2.526,0,0,0,1.15,2.121l11.213,7.3a6.08,6.08,0,0,0,6.628,0l11.209-7.3a2.521,2.521,0,0,0,1.15-2.121V118.192l8.88-5.071v4.736a5.038,5.038,0,0,0-3.55,4.806v12.271A1.479,1.479,0,0,0,50,136.413h7.1a1.479,1.479,0,0,0,1.479-1.479v-12.27a5.038,5.038,0,0,0-3.55-4.806v-7.285a1.478,1.478,0,0,0-.746-1.284L28.25,94.423a1.482,1.482,0,0,0-1.467,0L.746,109.289a1.479,1.479,0,0,0,0,2.569ZM40.239,128.04l-11.02,7.176a3.115,3.115,0,0,1-3.4,0L14.8,128.04v-8.158l11.984,6.841a1.477,1.477,0,0,0,1.467,0l11.989-6.841Zm15.388,5.415H51.486V122.664a2.071,2.071,0,0,1,4.141,0ZM27.516,97.406,47.98,109.094H31.647a4.436,4.436,0,1,0,.1,2.958H47.983L27.516,123.739,4.462,110.573Zm1.478,13.3a1.479,1.479,0,1,1-1.479-1.479h0a1.48,1.48,0,0,1,1.479,1.481h0Z" fill="#3e772d"/></g></svg>