<svg xmlns="http://www.w3.org/2000/svg" width="174.818" height="82.18" viewBox="0 0 174.818 82.18"><g transform="translate(-601.3 -478.882)"><g transform="translate(636.623 482.923)"><path d="M813.427,569.772a.769.769,0,0,1-.477-.165l-96.944-76.259a.772.772,0,0,1,.955-1.213L813.9,568.394a.772.772,0,0,1-.478,1.379Z" transform="translate(-715.711 -491.97)" fill="#888"/></g><g transform="translate(637.858 482.922)"><g transform="translate(0)"><path d="M720.484,569.771A.772.772,0,0,1,720,568.4l95.709-76.259a.772.772,0,1,1,.962,1.207L720.964,569.6A.768.768,0,0,1,720.484,569.771Z" transform="translate(-719.711 -491.969)" fill="#888"/></g></g><g transform="translate(601.3 510.872)" style="isolation:isolate"><g transform="translate(0 0)" style="isolation:isolate"><path d="M611.09,582.5q6,0,6,5.4a7.494,7.494,0,0,1-2.4,5.8,8.236,8.236,0,0,1-5.8,2.109q-.9,0-1.566-.053l-1.021-.066-.8,6.089,2.6.318-.079.929H601.3l.093-.915,1.977-.332,2.4-17.724-1.791-.252.133-1.074H607.2Zm-4.63,11.807a14.785,14.785,0,0,0,2.534.226q5.93-.053,5.93-6.792a4.091,4.091,0,0,0-.9-2.919,4.369,4.369,0,0,0-3.263-1.048,15.4,15.4,0,0,0-2.839.279Z" transform="translate(-601.3 -582.497)" fill="#888"/><g transform="translate(16.742 5.094)"><path d="M660.953,613.205a6.379,6.379,0,0,0,4.524-2.149l.5.9a5.7,5.7,0,0,1-1.658,1.565,6.7,6.7,0,0,1-3.469,1.167,5.474,5.474,0,0,1-2.58-.53q-2.746-1.433-2.746-5.333a11.784,11.784,0,0,1,1.074-4.935,8.013,8.013,0,0,1,4.484-4.537,5.787,5.787,0,0,1,2-.358,5.123,5.123,0,0,1,1.718.252,3.2,3.2,0,0,1,1.167.7,2.894,2.894,0,0,1,.929,2.149,4.05,4.05,0,0,1-.5,2.09,5.591,5.591,0,0,1-1.294,1.492,8.831,8.831,0,0,1-1.8,1.128,14.266,14.266,0,0,1-2.01.783,13.272,13.272,0,0,1-3.555.637q-.027.305-.027.577c0,.182.006.4.02.67a5.589,5.589,0,0,0,.146.948,5.117,5.117,0,0,0,.365,1.055,3.3,3.3,0,0,0,.61.889A2.788,2.788,0,0,0,660.953,613.205Zm-3.157-6.169a10.131,10.131,0,0,0,4.537-1.247,4.728,4.728,0,0,0,2.07-1.977,3.274,3.274,0,0,0,.318-1.526,2.026,2.026,0,0,0-.55-1.479,1.866,1.866,0,0,0-1.393-.564,3.341,3.341,0,0,0-1.472.305,4.148,4.148,0,0,0-1.148.829,6.223,6.223,0,0,0-.922,1.207,9.617,9.617,0,0,0-.7,1.439A10.81,10.81,0,0,0,657.8,607.036Z" transform="translate(-655.527 -598.997)" fill="#888"/></g><g transform="translate(31.069 1.738)"><path d="M704.427,607.176q-2.335,0-2.335-2.215v-.173a4.526,4.526,0,0,1,.053-.624l1.433-11.09h-1.645l.212-.929,1.685-.5a16.555,16.555,0,0,0,1.486-3.516h1.008l-.438,3.463h3.463l-.212,1.486H705.7l-1.274,9.273a17.044,17.044,0,0,0-.186,1.9,3.962,3.962,0,0,0,.053.769.764.764,0,0,0,.2.391,1.1,1.1,0,0,0,.809.279,2.955,2.955,0,0,0,.915-.126,6.87,6.87,0,0,0,.756-.3,7.261,7.261,0,0,0,1.247-.743l.186.849a4.19,4.19,0,0,1-1.34,1.008A6.314,6.314,0,0,1,704.427,607.176Z" transform="translate(-701.933 -588.126)" fill="#888"/></g><g transform="translate(39.706 5.094)"><path d="M735.332,613.205a6.379,6.379,0,0,0,4.524-2.149l.5.9a5.707,5.707,0,0,1-1.658,1.565,6.7,6.7,0,0,1-3.469,1.167,5.475,5.475,0,0,1-2.581-.53q-2.746-1.433-2.746-5.333a11.785,11.785,0,0,1,1.074-4.935,8.013,8.013,0,0,1,4.484-4.537,5.786,5.786,0,0,1,2-.358,5.123,5.123,0,0,1,1.718.252,3.2,3.2,0,0,1,1.167.7,2.894,2.894,0,0,1,.929,2.149,4.05,4.05,0,0,1-.5,2.09,5.59,5.59,0,0,1-1.294,1.492,8.836,8.836,0,0,1-1.8,1.128,14.266,14.266,0,0,1-2.01.783,13.273,13.273,0,0,1-3.555.637q-.027.305-.027.577c0,.182.006.4.02.67a5.583,5.583,0,0,0,.146.948,5.1,5.1,0,0,0,.365,1.055,3.29,3.29,0,0,0,.61.889A2.789,2.789,0,0,0,735.332,613.205Zm-3.157-6.169a10.131,10.131,0,0,0,4.537-1.247,4.727,4.727,0,0,0,2.069-1.977,3.273,3.273,0,0,0,.318-1.526,2.026,2.026,0,0,0-.55-1.479,1.866,1.866,0,0,0-1.393-.564,3.341,3.341,0,0,0-1.472.305,4.143,4.143,0,0,0-1.148.829,6.223,6.223,0,0,0-.922,1.207,9.617,9.617,0,0,0-.7,1.439A10.8,10.8,0,0,0,732.175,607.036Z" transform="translate(-729.906 -598.997)" fill="#888"/></g><g transform="translate(53.967 5.094)"><path d="M777.861,601.133l-1.287-.623.186-.955,2.812-.557.517.266-.385,3.37a7.065,7.065,0,0,1,1.87-2.348,4.887,4.887,0,0,1,3.157-1.274,1.407,1.407,0,0,1,.849.173l-.451,2.2a2.567,2.567,0,0,0-1.108-.186,4.078,4.078,0,0,0-1.346.212,4.4,4.4,0,0,0-1.194.65,6.533,6.533,0,0,0-2.03,2.627l-1.3,9.737H776.1Z" transform="translate(-776.097 -598.997)" fill="#888"/></g></g></g><g transform="translate(709.668 509.921)" style="isolation:isolate"><g transform="translate(0 0)" style="isolation:isolate"><g transform="translate(0 1.486)"><path d="M952.393,603.61l1.977-.332,2.4-17.724-1.791-.252.133-1.074h5.9l-.106,1.074-2,.252-1.38,10.175,9.207-10.175-1.8-.252.119-1.074h5.532l-.119,1.074-1.632.239-7.575,8.013q4.67,7.774,4.988,8.278a3.814,3.814,0,0,0,1.021,1.181l1.924.517-.146.995h-3.3q-.411-.04-1.115-1.38l-1.738-3.356q-2.361-4.205-2.826-4.975l-2.812,2.972-.743,5.492,2.069.318-.093.929H952.3Z" transform="translate(-952.3 -584.228)" fill="#888"/></g><g transform="translate(18.321 6.354)"><path d="M1021.7,615.691a1.378,1.378,0,0,1-1.552-1.565c0-.08,0-.163.013-.252l.133-.969a6.543,6.543,0,0,1-3.131,2.547,4.738,4.738,0,0,1-1.579.239,3.528,3.528,0,0,1-2.945-1.539,7.017,7.017,0,0,1-1-4.02,10.958,10.958,0,0,1,1.008-4.444,9.368,9.368,0,0,1,4.988-5.227,6.344,6.344,0,0,1,2.388-.464,8.466,8.466,0,0,1,2.666.478l.013-.013,1.566-.451-1.99,13.12q-.146.9.292,1.115a.715.715,0,0,0,.292.053q.239,0,1.114-.783l.358.584a2.33,2.33,0,0,1-.69.783A3.274,3.274,0,0,1,1021.7,615.691Zm-7.88-5.85q0,4.338,2.348,4.338a4.1,4.1,0,0,0,2.666-1.141,8.379,8.379,0,0,0,1.738-2.07l1.367-9.061a3.111,3.111,0,0,0-1.944-.6,4.657,4.657,0,0,0-1.983.385,5.43,5.43,0,0,0-1.486,1.028,7.073,7.073,0,0,0-1.167,1.5,10.747,10.747,0,0,0-.849,1.811A11,11,0,0,0,1013.816,609.841Z" transform="translate(-1011.64 -599.997)" fill="#888"/></g><g transform="translate(34.307 6.354)"><path d="M1065.182,602.133l-1.286-.623.186-.955,2.812-.557.517.266-.385,3.37a7.062,7.062,0,0,1,1.871-2.348,4.886,4.886,0,0,1,3.157-1.274,1.406,1.406,0,0,1,.849.173l-.451,2.2a2.567,2.567,0,0,0-1.108-.186,4.08,4.08,0,0,0-1.346.212,4.411,4.411,0,0,0-1.194.65,6.529,6.529,0,0,0-2.03,2.627l-1.3,9.737h-2.056Z" transform="translate(-1063.418 -599.997)" fill="#888"/></g><g transform="translate(45.437)"><path d="M1101.02,601.463q-1.592,0-1.446-1.579.053-.756.279-2.388l1.433-9.777-1.818-.531.186-.862,3.423-.557.544.279L1101.75,599.1a1.264,1.264,0,0,0,.06.736.364.364,0,0,0,.312.232q.517,0,1.433-.942l.358.583a4.136,4.136,0,0,1-1.844,1.539A2.613,2.613,0,0,1,1101.02,601.463Zm2.03-19.117a1.193,1.193,0,0,1-1.26-1.22,1.721,1.721,0,0,1,.531-1.26,1.43,1.43,0,0,1,1.041-.451,1.175,1.175,0,0,1,.916.358,1.24,1.24,0,0,1,.325.862,1.736,1.736,0,0,1-.5,1.234A1.428,1.428,0,0,1,1103.05,582.347Z" transform="translate(-1099.468 -579.415)" fill="#888"/></g><g transform="translate(53.277 6.354)"><path d="M1135.29,615.7a1.214,1.214,0,0,1-1.393-1.353c0-.062,0-.188.006-.378s.033-.484.086-.882.115-.813.186-1.247l.69-3.741a24.522,24.522,0,0,0,.5-3.728,7.759,7.759,0,0,0-.1-1.479,1.856,1.856,0,0,0-.312-.736,1.424,1.424,0,0,0-1.194-.491,3.687,3.687,0,0,0-1.512.312,7.529,7.529,0,0,0-1.42.843,11.021,11.021,0,0,0-2.6,2.719l-1.313,9.883h-2.056l1.764-13.293-1.3-.623.186-.955,2.8-.557.531.266-.358,3.409a9.753,9.753,0,0,1,4.365-3.37,4.516,4.516,0,0,1,1.572-.305,3.88,3.88,0,0,1,1.307.2,2.141,2.141,0,0,1,.942.663,4.6,4.6,0,0,1,.823,3.051,14.2,14.2,0,0,1-.305,2.72q-.305,1.539-.4,2.069-.637,3.609-.677,4.351-.066,1.247.292,1.247a2.238,2.238,0,0,0,1.287-.717l.345.584a3.776,3.776,0,0,1-1.764,1.34A2.471,2.471,0,0,1,1135.29,615.7Z" transform="translate(-1124.863 -599.997)" fill="#888"/></g></g></g><g transform="translate(674.211 539.32)"><g transform="translate(0 0)"><path d="M850.168,696.668a1.4,1.4,0,0,1-.925-.347c-.966-.845-1.9-1.639-2.72-2.339l0,0a50.722,50.722,0,0,1-5.938-5.574,8.906,8.906,0,0,1-2.372-5.828,7.474,7.474,0,0,1,1.9-5.106,6.431,6.431,0,0,1,4.784-2.082,6.016,6.016,0,0,1,3.758,1.3,7.694,7.694,0,0,1,1.519,1.587,7.689,7.689,0,0,1,1.519-1.587,6.015,6.015,0,0,1,3.758-1.3,6.432,6.432,0,0,1,4.786,2.082,7.476,7.476,0,0,1,1.9,5.106,8.9,8.9,0,0,1-2.372,5.827,50.588,50.588,0,0,1-5.938,5.573c-.823.7-1.756,1.5-2.725,2.344a1.4,1.4,0,0,1-.924.347ZM844.89,676.79a5.045,5.045,0,0,0-3.754,1.631,6.081,6.081,0,0,0-1.527,4.156,7.491,7.491,0,0,0,2.05,4.933,49.8,49.8,0,0,0,5.768,5.4l0,0c.825.7,1.76,1.5,2.734,2.351.979-.853,1.916-1.651,2.743-2.355a49.762,49.762,0,0,0,5.768-5.4,7.492,7.492,0,0,0,2.05-4.933,6.084,6.084,0,0,0-1.526-4.156,5.046,5.046,0,0,0-3.754-1.631,4.647,4.647,0,0,0-2.9,1,6.8,6.8,0,0,0-1.614,1.871.884.884,0,0,1-1.519,0,6.8,6.8,0,0,0-1.617-1.871,4.645,4.645,0,0,0-2.9-1Z" transform="translate(-837.976 -675.157)" fill="#888"/><path d="M849.651,696.381h0v0h0a1.634,1.634,0,0,1-1.076-.4c-.974-.852-1.9-1.641-2.717-2.337l-.031-.027a50.577,50.577,0,0,1-5.94-5.58,9.123,9.123,0,0,1-2.425-5.975,7.681,7.681,0,0,1,1.956-5.26,6.685,6.685,0,0,1,4.958-2.16h.028a6.267,6.267,0,0,1,3.872,1.347,7.9,7.9,0,0,1,1.376,1.381,7.926,7.926,0,0,1,1.377-1.382,6.272,6.272,0,0,1,3.875-1.346h.076a6.674,6.674,0,0,1,4.907,2.158,7.689,7.689,0,0,1,1.958,5.266,9.117,9.117,0,0,1-2.426,5.971,50.611,50.611,0,0,1-5.953,5.591c-.784.668-1.744,1.486-2.735,2.352A1.63,1.63,0,0,1,849.651,696.381Zm0-.463h0a1.167,1.167,0,0,0,.771-.29c.993-.868,1.954-1.687,2.727-2.346a50.422,50.422,0,0,0,5.91-5.545,8.684,8.684,0,0,0,2.319-5.679,7.228,7.228,0,0,0-1.839-4.952,6.272,6.272,0,0,0-4.611-2,5.833,5.833,0,0,0-3.617,1.247,7.462,7.462,0,0,0-1.474,1.54l-.189.264-.188-.264a7.449,7.449,0,0,0-1.474-1.539A5.8,5.8,0,0,0,844.4,675.1h-.069a6.212,6.212,0,0,0-4.571,2.008,7.22,7.22,0,0,0-1.836,4.945,8.691,8.691,0,0,0,2.319,5.684,50.353,50.353,0,0,0,5.884,5.522l.027.023c.822.7,1.749,1.491,2.726,2.345a1.17,1.17,0,0,0,.771.29Zm0-.863-.152-.133c-1-.874-1.96-1.692-2.731-2.349a49.928,49.928,0,0,1-5.8-5.434,7.7,7.7,0,0,1-2.1-5.081,6.293,6.293,0,0,1,1.585-4.309,5.341,5.341,0,0,1,3.928-1.709h.015a4.9,4.9,0,0,1,3.031,1.055,7,7,0,0,1,1.673,1.935.653.653,0,0,0,1.121,0,6.992,6.992,0,0,1,1.668-1.933,4.9,4.9,0,0,1,3.03-1.055h.059a5.285,5.285,0,0,1,3.883,1.706,6.3,6.3,0,0,1,1.588,4.318,7.7,7.7,0,0,1-2.1,5.076,49.877,49.877,0,0,1-5.792,5.426c-.83.707-1.766,1.5-2.744,2.357ZM844.333,676.5a4.823,4.823,0,0,0-3.545,1.557,5.833,5.833,0,0,0-1.465,3.994,7.279,7.279,0,0,0,2,4.79,49.674,49.674,0,0,0,5.738,5.371c.739.63,1.643,1.4,2.59,2.226.925-.8,1.808-1.556,2.592-2.224a49.592,49.592,0,0,0,5.74-5.372,7.279,7.279,0,0,0,2-4.785,5.837,5.837,0,0,0-1.468-4,4.82,4.82,0,0,0-3.542-1.553h-.054a4.432,4.432,0,0,0-2.744.954,6.526,6.526,0,0,0-1.558,1.806,1.116,1.116,0,0,1-1.918,0,6.526,6.526,0,0,0-1.563-1.809,4.429,4.429,0,0,0-2.74-.954h-.056Z" transform="translate(-837.457 -674.638)" fill="#888"/></g></g><g transform="translate(669.208 478.882)"><g transform="translate(0)"><path d="M840.581,484.241a6.394,6.394,0,0,0-1.407,1.6,8.319,8.319,0,1,1-4.214-4.256,12.341,12.341,0,0,1,1.405-1.5,10.292,10.292,0,1,0,4.215,4.16Z" transform="translate(-821.253 -478.882)" fill="#888"/></g><g transform="translate(13.038 0.001)"><path d="M873.77,478.885a10.284,10.284,0,0,0-9.027,15.217,6.408,6.408,0,0,0,1.406-1.6,8.319,8.319,0,1,1,4.214,4.256,12.406,12.406,0,0,1-1.405,1.5,10.286,10.286,0,1,0,4.812-19.377Z" transform="translate(-863.483 -478.885)" fill="#888"/></g></g></g></svg>